<svg width="231" height="246" viewBox="0 0 231 246" fill="none" xmlns="http://www.w3.org/2000/svg">
<circle cx="114.5" cy="122.5" r="92" fill="url(#paint0_linear_0_1)" stroke="black"/>
<circle cx="114.5" cy="122.5" r="82" fill="url(#paint1_linear_0_1)" stroke="black"/>
<circle cx="114.5" cy="122.5" r="72" fill="url(#paint2_linear_0_1)" stroke="black"/>
<path d="M114.5 133.704C120.391 133.704 125.167 128.928 125.167 123.037C125.167 117.146 120.391 112.371 114.5 112.371C108.609 112.371 103.833 117.146 103.833 123.037C103.833 128.928 108.609 133.704 114.5 133.704ZM114.5 21.7039C120.391 21.7039 125.167 16.9283 125.167 11.0373C125.167 5.14623 120.391 0.370605 114.5 0.370605C108.609 0.370605 103.833 5.14623 103.833 11.0373C103.833 16.9283 108.609 21.7039 114.5 21.7039ZM116.5 123.037L116.5 11.0373H112.5L112.5 123.037H116.5Z" fill="black"/>
<path d="M135 108.667C140.891 108.667 145.667 103.891 145.667 98C145.667 92.109 140.891 87.3333 135 87.3333C129.109 87.3333 124.333 92.109 124.333 98C124.333 103.891 129.109 108.667 135 108.667ZM137 98V33H133V98H137Z" fill="black"/>
<path d="M186.61 33C186.61 27.109 181.835 22.3333 175.944 22.3333C170.053 22.3333 165.277 27.109 165.277 33C165.277 38.891 170.053 43.6667 175.944 43.6667C181.835 43.6667 186.61 38.891 186.61 33ZM175.944 31H133V35H175.944V31Z" fill="black"/>
<path d="M230.491 123L218.944 111.453L207.397 123L218.944 134.547L230.491 123ZM218.944 121H176V125H218.944V121Z" fill="black"/>
<path d="M0.452994 123L12 111.453L23.547 123L12 134.547L0.452994 123ZM12 121H54.9436V125H12V121Z" fill="black"/>
<path d="M92.9436 109.667C87.0526 109.667 82.2769 104.891 82.2769 99C82.2769 93.109 87.0526 88.3333 92.9436 88.3333C98.8346 88.3333 103.61 93.109 103.61 99C103.61 104.891 98.8346 109.667 92.9436 109.667ZM90.9436 99V34H94.9436V99H90.9436Z" fill="black"/>
<path d="M41.3333 34C41.3333 28.109 46.109 23.3333 52 23.3333C57.891 23.3333 62.6667 28.109 62.6667 34C62.6667 39.891 57.891 44.6667 52 44.6667C46.109 44.6667 41.3333 39.891 41.3333 34ZM52 32H94.9436V36H52V32Z" fill="black"/>
<path d="M115.5 112.333C121.391 112.333 126.167 117.109 126.167 123C126.167 128.891 121.391 133.667 115.5 133.667C109.609 133.667 104.833 128.891 104.833 123C104.833 117.109 109.609 112.333 115.5 112.333ZM115.5 224.333C121.391 224.333 126.167 229.109 126.167 235C126.167 240.891 121.391 245.667 115.5 245.667C109.609 245.667 104.833 240.891 104.833 235C104.833 229.109 109.609 224.333 115.5 224.333ZM117.5 123L117.5 235H113.5L113.5 123H117.5Z" fill="black"/>
<path d="M136 137.371C141.891 137.371 146.667 142.146 146.667 148.037C146.667 153.928 141.891 158.704 136 158.704C130.109 158.704 125.333 153.928 125.333 148.037C125.333 142.146 130.109 137.371 136 137.371ZM138 148.037V213.037H134V148.037H138Z" fill="black"/>
<path d="M187.61 212C187.61 217.891 182.835 222.667 176.944 222.667C171.053 222.667 166.277 217.891 166.277 212C166.277 206.109 171.053 201.333 176.944 201.333C182.835 201.333 187.61 206.109 187.61 212ZM176.944 214H134V210H176.944V214Z" fill="black"/>
<path d="M93.9436 136.371C88.0526 136.371 83.2769 141.146 83.2769 147.037C83.2769 152.928 88.0526 157.704 93.9436 157.704C99.8346 157.704 104.61 152.928 104.61 147.037C104.61 141.146 99.8346 136.371 93.9436 136.371ZM91.9436 147.037V212.037H95.9436V147.037H91.9436Z" fill="black"/>
<path d="M42.3333 212C42.3333 217.891 47.109 222.667 53 222.667C58.891 222.667 63.6667 217.891 63.6667 212C63.6667 206.109 58.891 201.333 53 201.333C47.109 201.333 42.3333 206.109 42.3333 212ZM53 214H95.9436V210H53V214Z" fill="black"/>
<g filter="url(#filter0_d_0_1)">
<rect x="60" y="68" width="110" height="110" fill="black"/>
<rect x="57.5" y="65.5" width="115" height="115" stroke="#00AF42" stroke-width="5"/>
</g>
<path d="M158.26 133.813C158.26 131.351 157.591 129.033 156.436 127.08C155.677 125.796 154.707 124.669 153.577 123.744C154.665 122.138 155.403 120.232 155.649 118.146C155.71 117.636 155.738 117.128 155.738 116.624C155.738 113.566 154.652 110.713 152.833 108.535V108.537C151.517 106.957 149.8 105.726 147.833 105.02C148.248 103.693 148.469 102.311 148.471 100.917V100.909V100.907C148.469 99.439 148.226 97.9644 147.725 96.5572C147.225 95.1483 146.467 93.8071 145.452 92.6155C144.255 91.2068 142.817 90.1354 141.264 89.4212C139.731 88.715 138.084 88.3548 136.433 88.3466C136.431 88.3466 136.413 88.3466 136.384 88.3466V88.3448C136.38 88.3466 136.337 88.3432 136.261 88.3482C136.066 88.3496 135.872 88.3564 135.678 88.3663C135.111 86.2102 134.019 84.2781 132.557 82.7444C131.459 81.589 130.148 80.6542 128.691 80.0057C127.264 79.3704 125.693 79.0167 124.057 79.0018C124.056 79.0018 124.026 79.0018 123.974 79H123.971H123.955H123.954H123.952H123.95C123.949 79 123.947 79 123.947 79C123.925 79 123.892 79 123.844 79.0018C122.208 79.0181 120.64 79.3721 119.213 80.0057C117.755 80.654 116.445 81.5888 115.345 82.7444H115.347C115.096 83.0076 114.858 83.2842 114.629 83.5687C114.402 83.284 114.164 83.0076 113.913 82.7444C112.815 81.589 111.504 80.6542 110.047 80.0057C108.62 79.3704 107.05 79.0167 105.413 79.0018C105.413 79.0018 105.382 79.0018 105.332 79H105.329H105.313H105.31H105.308C105.308 79 105.308 79 105.307 79C105.305 79 105.305 79 105.304 79C105.283 79 105.249 79 105.202 79.0018C103.566 79.0181 101.997 79.3721 100.569 80.0057C99.1123 80.654 97.8012 81.5888 96.703 82.7444C95.2414 84.2781 94.151 86.2086 93.5824 88.3663C93.3694 88.353 93.1563 88.3466 92.9416 88.3466V88.3448C92.9416 88.3448 92.9259 88.3448 92.9039 88.3432C92.8993 88.3448 92.8617 88.3432 92.7911 88.3466C91.1524 88.3596 89.5185 88.7184 87.9959 89.4196C86.4433 90.1338 85.0052 91.2054 83.8085 92.6157C82.7762 93.827 82.0007 95.2013 81.4867 96.6462C80.9715 98.0911 80.716 99.6103 80.716 101.123C80.716 101.123 80.716 101.147 80.716 101.187H80.7175C80.724 102.431 80.9071 103.67 81.2549 104.865C79.8199 105.54 78.5321 106.494 77.4623 107.665V107.661C76.4064 108.813 75.5557 110.171 74.9667 111.672C74.3777 113.173 74.0549 114.819 74.0549 116.529C74.0549 116.68 74.0582 116.833 74.0628 116.985C74.1194 118.678 74.4921 120.294 75.1171 121.757C75.3741 122.358 75.6749 122.933 76.0132 123.481C74.7426 124.452 73.6555 125.673 72.8238 127.08C71.6689 129.033 71 131.351 71 133.813C71 135.572 71.3415 137.259 71.9571 138.791C72.5744 140.323 73.4658 141.699 74.5656 142.855H74.564C75.6606 144.005 76.9657 144.938 78.4178 145.586C79.0177 145.853 79.6428 146.069 80.2882 146.233C80.0486 147.242 79.9264 148.273 79.9247 149.3H79.9232V149.327V149.329V149.332C79.9232 151.09 80.2678 152.846 80.9509 154.48C81.6338 156.113 82.6567 157.626 84.0041 158.885C85.1571 159.962 86.462 160.774 87.8343 161.312C89.1848 161.84 90.6024 162.107 92.017 162.113C92.039 162.117 92.0577 162.117 92.0736 162.117C92.0767 162.117 92.0799 162.117 92.0828 162.117H92.086C92.086 162.117 92.086 162.117 92.0876 162.117H92.1189V162.115C93.2248 162.113 94.3294 161.949 95.3976 161.63C95.7895 162.209 96.2247 162.754 96.7028 163.256V163.254C97.801 164.411 99.112 165.346 100.569 165.994C101.993 166.626 103.56 166.982 105.191 166.997C105.225 166.998 105.256 167 105.306 167H105.308C105.309 167 105.309 167 105.309 167C105.346 167 105.363 166.998 105.363 166.998C107.017 166.992 108.604 166.635 110.047 165.994C111.504 165.346 112.815 164.411 113.913 163.256C114.164 162.992 114.402 162.716 114.629 162.429C114.858 162.716 115.096 162.992 115.346 163.256C116.444 164.411 117.756 165.346 119.213 165.994C120.635 166.626 122.202 166.982 123.834 166.997C123.868 166.998 123.9 167 123.948 167C123.948 167 123.948 167 123.95 167C123.951 167 123.951 167 123.951 167C123.953 167 123.953 167 123.953 167C123.987 167 124.005 166.998 124.005 166.998C125.659 166.992 127.247 166.635 128.69 165.994C130.147 165.346 131.458 164.411 132.557 163.254V163.256C133.034 162.754 133.47 162.209 133.862 161.63C134.941 161.951 136.055 162.117 137.173 162.117C137.173 162.117 137.175 162.117 137.176 162.117C137.183 162.117 137.184 162.117 137.189 162.117C137.218 162.117 137.236 162.115 137.237 162.115C138.652 162.107 140.071 161.842 141.425 161.31C142.797 160.774 144.102 159.962 145.255 158.885C146.602 157.626 147.625 156.113 148.308 154.48C148.985 152.858 149.33 151.118 149.334 149.373H149.336C149.336 149.347 149.336 149.336 149.336 149.336V149.329C149.336 148.29 149.212 147.252 148.971 146.233C149.616 146.069 150.241 145.853 150.841 145.586C152.294 144.938 153.599 144.005 154.695 142.854H154.694C155.793 141.699 156.685 140.323 157.302 138.791C157.918 137.259 158.26 135.572 158.26 133.813ZM113.335 121.846C112.442 121.525 111.515 121.362 110.569 121.362C109.69 121.362 108.819 121.502 107.974 121.779L107.942 121.792C106.784 122.215 105.656 122.427 104.588 122.427C102.702 122.427 101.064 121.771 99.8534 120.533C98.7582 119.412 98.1317 117.878 98.1317 116.323C98.1334 114.937 98.6174 113.594 99.5307 112.442C99.9882 111.866 99.9145 111.007 99.3678 110.527C99.136 110.323 98.8415 110.211 98.5375 110.211C98.1538 110.211 97.7903 110.389 97.5444 110.698C96.2331 112.345 95.5408 114.291 95.5423 116.322C95.5423 118.606 96.454 120.851 98.0441 122.48C99.7204 124.202 102.042 125.15 104.591 125.15C105.938 125.15 107.345 124.886 108.755 124.374C109.344 124.18 109.953 124.083 110.569 124.083C111.529 124.083 112.48 124.329 113.336 124.796V136.532H106.474C105.76 136.532 105.18 137.142 105.18 137.893C105.18 138.642 105.76 139.252 106.474 139.252H113.336V154.214C113.336 155.337 113.127 156.426 112.733 157.433C112.728 157.443 112.723 157.45 112.718 157.46C112.414 158.228 112.004 158.938 111.509 159.569C111.498 159.586 111.486 159.599 111.475 159.612C111.403 159.703 111.331 159.792 111.257 159.877C111.191 159.955 111.122 160.027 111.053 160.101C111.031 160.126 111.009 160.152 110.986 160.177L110.984 160.178C110.969 160.195 110.953 160.208 110.937 160.225C110.86 160.305 110.78 160.386 110.701 160.462C110.655 160.504 110.609 160.545 110.564 160.587C110.513 160.634 110.461 160.682 110.408 160.728C110.329 160.796 110.249 160.86 110.168 160.926C110.148 160.942 110.127 160.958 110.107 160.975C109.593 161.38 109.031 161.719 108.434 161.985C108.196 162.091 107.953 162.183 107.705 162.265C107.701 162.267 107.699 162.267 107.696 162.269C107.588 162.303 107.48 162.336 107.37 162.366C107.348 162.372 107.328 162.379 107.307 162.383C107.214 162.41 107.119 162.43 107.025 162.453C106.988 162.461 106.952 162.471 106.914 162.479C106.834 162.495 106.753 162.509 106.671 162.525C106.62 162.533 106.569 162.545 106.516 162.551C106.444 162.565 106.371 162.571 106.298 162.581C106.239 162.589 106.178 162.598 106.118 162.604C106.043 162.612 105.97 162.617 105.894 162.622C105.835 162.627 105.775 162.634 105.716 162.637C105.598 162.644 105.479 162.645 105.36 162.645C105.343 162.645 105.326 162.647 105.308 162.647C105.29 162.647 105.269 162.645 105.249 162.645C105.133 162.645 105.017 162.644 104.903 162.637C104.84 162.634 104.779 162.627 104.716 162.622C104.646 162.617 104.572 162.612 104.5 162.604C104.437 162.598 104.376 162.588 104.313 162.581C104.243 162.571 104.171 162.563 104.1 162.551C104.047 162.545 103.994 162.533 103.941 162.523C103.861 162.509 103.783 162.496 103.704 162.479C103.665 162.471 103.626 162.459 103.587 162.451C103.494 162.43 103.402 162.408 103.311 162.383C103.289 162.377 103.266 162.37 103.244 162.364C103.135 162.334 103.029 162.303 102.924 162.268C102.918 162.267 102.912 162.265 102.907 162.263C102.661 162.183 102.42 162.091 102.185 161.985C101.586 161.719 101.025 161.38 100.51 160.975C100.488 160.958 100.468 160.939 100.446 160.922C100.366 160.858 100.288 160.795 100.211 160.728C100.153 160.677 100.096 160.624 100.038 160.573C99.9992 160.537 99.957 160.501 99.9178 160.463C99.8222 160.371 99.7267 160.275 99.6327 160.178C99.6311 160.175 99.6294 160.173 99.6279 160.172C99.4932 160.03 99.3632 159.882 99.2379 159.729C99.2175 159.702 99.1957 159.678 99.1752 159.651C98.7727 159.148 98.4217 158.595 98.1364 157.999C98.1318 157.989 98.124 157.978 98.1177 157.966C97.5727 156.814 97.2812 155.537 97.2812 154.214C97.2812 153.206 97.4958 152.112 97.8876 151.133C98.32 150.052 98.9591 149.118 99.7361 148.437C100.002 148.205 100.165 147.878 100.197 147.516C100.228 147.153 100.123 146.801 99.9021 146.521C99.6562 146.212 99.2928 146.034 98.9075 146.034C98.6051 146.034 98.3105 146.146 98.0787 146.349C96.9837 147.308 96.0921 148.6 95.4985 150.083C94.9723 151.405 94.6934 152.833 94.6917 154.214C94.6917 155.211 94.8187 156.199 95.0677 157.158C94.9297 157.216 94.7887 157.272 94.6462 157.321C94.6101 157.334 94.5711 157.348 94.5349 157.359C94.4458 157.389 94.358 157.417 94.2687 157.443C94.2125 157.46 94.1559 157.476 94.0981 157.492C94.0276 157.511 93.957 157.529 93.8851 157.545C93.8191 157.563 93.7533 157.578 93.6877 157.591C93.6235 157.606 93.5592 157.618 93.4934 157.631C93.4246 157.644 93.3557 157.655 93.285 157.667C93.2192 157.677 93.1534 157.687 93.0877 157.695C93.0219 157.703 92.9545 157.713 92.8888 157.721C92.8088 157.728 92.7304 157.734 92.6522 157.739C92.5973 157.744 92.5441 157.749 92.4893 157.752C92.3562 157.759 92.2214 157.764 92.0867 157.764C90.1223 157.764 88.2282 157.005 86.7588 155.633C85.048 154.033 84.0689 151.735 84.0673 149.329C84.0673 149.202 84.069 149.078 84.0752 148.953C84.105 148.232 84.2257 147.514 84.4324 146.816C84.4416 146.785 84.4494 146.752 84.4607 146.719C84.4638 146.704 84.4701 146.689 84.4747 146.676C84.5077 146.571 84.5421 146.464 84.5798 146.359C84.5813 146.354 84.5829 146.351 84.5859 146.345C84.6376 146.201 84.694 146.058 84.7552 145.913C84.7615 145.9 84.7678 145.886 84.7724 145.873C84.8365 145.725 84.904 145.579 84.9776 145.431C84.9793 145.427 84.9808 145.426 84.9808 145.426C85.2832 144.817 85.6561 144.247 86.0961 143.727C86.5708 143.166 86.5222 142.305 85.9881 141.807C85.7515 141.584 85.4461 141.463 85.1294 141.463C84.7598 141.463 84.4058 141.631 84.1614 141.92C84.0847 142.009 84.0111 142.101 83.9375 142.194C83.8199 142.215 83.7462 142.226 83.6852 142.233C83.5833 142.243 83.4533 142.246 83.1712 142.246C83.1649 142.246 83.1588 142.246 83.1525 142.246C83.1511 142.246 83.1494 142.246 83.1479 142.246C83.01 142.246 82.8736 142.241 82.7373 142.235C82.7296 142.233 82.7201 142.233 82.7122 142.231C82.5854 142.225 82.46 142.215 82.3363 142.2C82.3175 142.2 82.2971 142.195 82.2783 142.194C82.164 142.18 82.0512 142.166 81.9383 142.147C81.9179 142.144 81.8991 142.141 81.8804 142.138C81.766 142.118 81.6532 142.098 81.5419 142.073C81.5295 142.07 81.5184 142.067 81.5059 142.063C81.3853 142.037 81.2677 142.009 81.1503 141.978C81.1486 141.976 81.147 141.976 81.1455 141.976C80.7648 141.873 80.3951 141.739 80.0363 141.58C79.4412 141.315 78.8818 140.974 78.3695 140.572C78.3476 140.556 78.3273 140.538 78.3053 140.52C78.2254 140.456 78.1471 140.393 78.0718 140.326C78.0156 140.278 77.9607 140.227 77.9058 140.176C77.8635 140.14 77.8213 140.1 77.7805 140.062C77.6834 139.969 77.5879 139.875 77.4954 139.778C77.4013 139.679 77.3105 139.577 77.2214 139.475C77.2024 139.451 77.1837 139.428 77.1632 139.405C77.0975 139.326 77.0317 139.247 76.9689 139.168C76.9158 139.099 76.8657 139.03 76.814 138.961C76.7874 138.925 76.7592 138.889 76.7341 138.852C76.6618 138.752 76.5945 138.652 76.5272 138.548C76.5224 138.54 76.518 138.533 76.5132 138.527C76.2249 138.077 75.9759 137.598 75.7737 137.096C75.6265 136.728 75.5027 136.348 75.4056 135.956C75.4025 135.943 75.3978 135.929 75.3947 135.916C75.3681 135.808 75.3461 135.699 75.3226 135.587C75.3165 135.561 75.31 135.533 75.3052 135.503C75.2865 135.406 75.2708 135.307 75.2551 135.208C75.2488 135.167 75.2394 135.128 75.2347 135.087C75.222 134.994 75.2111 134.902 75.2002 134.81C75.1956 134.761 75.1893 134.715 75.1846 134.666C75.1753 134.57 75.169 134.475 75.1641 134.379C75.161 134.333 75.1549 134.287 75.1532 134.241C75.1471 134.101 75.1438 133.958 75.1438 133.813C75.1438 133.614 75.15 133.415 75.1641 133.219C75.1719 133.086 75.1876 132.954 75.2033 132.822C75.2098 132.76 75.2144 132.699 75.2222 132.638C75.244 132.465 75.2739 132.294 75.3068 132.124C75.3115 132.104 75.3131 132.085 75.3163 132.065C75.3538 131.884 75.3961 131.703 75.4446 131.527C75.4463 131.519 75.4479 131.509 75.4494 131.502C75.4978 131.326 75.551 131.153 75.6091 130.98C75.6137 130.969 75.6154 130.959 75.62 130.947C75.6749 130.785 75.7376 130.627 75.8017 130.469C75.8112 130.447 75.8174 130.426 75.8267 130.406C75.8894 130.255 75.9598 130.107 76.0321 129.96C76.0447 129.934 76.0556 129.906 76.0681 129.879C76.1543 129.708 76.2467 129.54 76.3438 129.376C76.4394 129.215 76.5398 129.056 76.6431 128.904C77.1602 128.15 77.7914 127.49 78.5105 126.95C78.5246 126.938 78.5371 126.927 78.5512 126.917C78.5763 126.899 78.6029 126.883 78.6279 126.865C78.9004 126.669 79.1825 126.487 79.477 126.328L79.4802 126.325C79.4894 126.32 79.499 126.315 79.5068 126.311C79.6055 126.257 79.7057 126.208 79.8044 126.16C79.8593 126.134 79.9124 126.107 79.969 126.081C79.9736 126.081 79.9782 126.076 79.983 126.074C80.9889 125.615 82.0571 125.38 83.171 125.38C84.9899 125.38 86.7022 126.004 88.1261 127.184C88.4535 127.56 89.5047 128.719 91.0744 129.886C92.1694 130.699 93.2944 131.351 94.4206 131.82C95.8587 132.421 97.3002 132.725 98.7069 132.725C99.4198 132.725 100.001 132.115 100.001 131.364C100.001 130.613 99.4198 130.004 98.7069 130.004C97.6306 130.004 96.5106 129.764 95.3748 129.292C93.7329 128.607 92.3497 127.549 91.4788 126.782C90.9839 126.344 90.5984 125.956 90.3633 125.707C90.2381 125.573 90.1409 125.465 90.0767 125.391L89.9954 125.296L89.9499 125.242C89.9294 125.217 89.9076 125.194 89.8824 125.174L89.8292 125.126C87.9524 123.537 85.5901 122.659 83.1712 122.659C82.4351 122.659 81.6956 122.742 80.9703 122.905C80.8074 122.757 80.6553 122.6 80.5066 122.44C80.4517 122.384 80.3985 122.327 80.3452 122.268C80.2998 122.215 80.256 122.162 80.2103 122.11C80.1711 122.062 80.1291 122.013 80.0897 121.963C80.0051 121.859 79.9237 121.752 79.8453 121.644C79.8296 121.624 79.817 121.604 79.803 121.584C79.7355 121.491 79.6699 121.395 79.6074 121.298C79.5949 121.28 79.5838 121.262 79.5712 121.242C79.5072 121.142 79.4444 121.042 79.3833 120.936C79.3754 120.923 79.3676 120.91 79.3613 120.897C79.2972 120.786 79.2345 120.675 79.1765 120.561C79.1719 120.553 79.1687 120.546 79.1641 120.538C79.1029 120.416 79.0434 120.294 78.9855 120.171C78.9855 120.171 78.9855 120.168 78.9838 120.166C78.6344 119.398 78.3948 118.573 78.2787 117.72C78.2773 117.712 78.2756 117.704 78.2756 117.704C78.2582 117.576 78.2473 117.45 78.2349 117.327C78.2332 117.306 78.2303 117.284 78.2286 117.263C78.219 117.143 78.2129 117.023 78.2066 116.901C78.2066 116.878 78.2035 116.855 78.2035 116.832V116.83C78.2003 116.73 78.1988 116.629 78.1988 116.529C78.1988 116.389 78.202 116.251 78.2083 116.112C78.21 116.066 78.2146 116.019 78.2179 115.973C78.2242 115.882 78.2288 115.791 78.2366 115.703C78.2414 115.647 78.2507 115.594 78.2553 115.538C78.2649 115.456 78.2741 115.375 78.285 115.294C78.2915 115.242 78.3007 115.189 78.3085 115.14C78.3227 115.056 78.3351 114.972 78.3508 114.89C78.3585 114.845 78.3695 114.801 78.3789 114.758C78.3963 114.667 78.415 114.578 78.4353 114.49C78.4432 114.457 78.4525 114.425 78.4604 114.393C78.4854 114.294 78.5107 114.193 78.5388 114.095C78.5451 114.077 78.5514 114.055 78.5575 114.036C78.5904 113.925 78.6233 113.817 78.6608 113.708C78.6623 113.7 78.6671 113.692 78.6686 113.683C78.7094 113.565 78.7518 113.446 78.7987 113.329L78.8002 113.326C78.8958 113.079 79.0039 112.841 79.1213 112.605C79.1213 112.605 79.1213 112.605 79.123 112.604C79.181 112.487 79.242 112.373 79.3047 112.261C79.3093 112.251 79.3141 112.243 79.3188 112.235C79.3783 112.131 79.4395 112.027 79.502 111.925C79.5162 111.904 79.5319 111.881 79.546 111.858C79.6009 111.773 79.6556 111.687 79.7137 111.603C79.7466 111.554 79.7841 111.506 79.8187 111.458C79.8594 111.402 79.8986 111.345 79.9409 111.289C80.0097 111.198 80.0803 111.109 80.1524 111.022C80.1633 111.009 80.1729 110.996 80.1822 110.984C80.2683 110.882 80.3561 110.782 80.4454 110.683C80.4486 110.681 80.4501 110.678 80.4515 110.676C80.5691 110.55 80.6898 110.428 80.8135 110.309C80.8464 110.278 80.8793 110.247 80.9137 110.216C81.1769 109.972 81.4541 109.743 81.7473 109.536C81.766 109.524 81.7848 109.511 81.8035 109.498C82.1152 109.281 82.4426 109.087 82.7842 108.915C82.7874 108.914 82.7905 108.912 82.792 108.912C83.32 108.649 83.8807 108.445 84.4651 108.308C84.4699 108.306 84.4743 108.305 84.4793 108.303C84.9554 108.193 85.4458 108.125 85.9424 108.107C86.0332 108.102 86.1225 108.102 86.2291 108.102H86.2306C86.6442 108.102 87.0594 108.135 87.465 108.201C87.5323 108.211 87.5981 108.217 87.6639 108.217C88.3078 108.217 88.8436 107.732 88.9438 107.064C89.0519 106.323 88.5662 105.627 87.8613 105.512C87.3224 105.425 86.7756 105.38 86.2304 105.38C86.1411 105.38 86.0503 105.382 85.961 105.385C85.903 105.281 85.8499 105.174 85.798 105.069C85.7401 104.956 85.6852 104.842 85.6336 104.727C85.6148 104.684 85.5961 104.643 85.5787 104.598C85.5254 104.475 85.4737 104.353 85.4267 104.228C85.4125 104.19 85.3984 104.151 85.3859 104.113C85.3389 103.985 85.2951 103.856 85.2544 103.724C85.2418 103.686 85.2309 103.645 85.2199 103.608C85.1825 103.478 85.1463 103.349 85.115 103.219C85.1024 103.172 85.093 103.127 85.0821 103.079C85.0555 102.956 85.0272 102.832 85.0052 102.707C84.9926 102.645 84.9848 102.584 84.9738 102.523C84.9565 102.411 84.9394 102.301 84.9253 102.189C84.9144 102.098 84.9065 102.008 84.8987 101.916C84.8908 101.832 84.8815 101.748 84.8767 101.662C84.8658 101.486 84.8595 101.308 84.8595 101.129V101.126C84.8595 99.1819 85.4969 97.3091 86.6596 95.8097C86.6722 95.7916 86.6862 95.7752 86.7001 95.7587C86.7644 95.6765 86.8302 95.5942 86.8992 95.5134C86.9415 95.464 86.9854 95.418 87.0275 95.3703C87.0824 95.3079 87.1373 95.2452 87.1937 95.1859C88.6945 93.5994 90.7466 92.6976 92.8898 92.6958C92.893 92.6958 92.8992 92.6958 92.9038 92.6958C93.0418 92.6976 93.178 92.7008 93.3159 92.709C93.3597 92.7122 93.4036 92.7156 93.4459 92.7187C93.5507 92.7269 93.6574 92.7369 93.7624 92.7484C93.8014 92.7532 93.8406 92.7582 93.8813 92.7633C94.0192 92.7812 94.1588 92.8027 94.2965 92.8274C94.298 92.8288 94.3011 92.8288 94.3043 92.8288C94.4516 92.8567 94.5988 92.8898 94.7461 92.9276C96.0088 93.2436 97.1868 93.8791 98.1799 94.7908C98.4557 95.1199 99.6494 96.5139 101.196 97.9542C102.237 98.9217 103.229 99.7167 104.144 100.316C104.719 100.691 105.251 100.984 105.77 101.211C106.384 101.479 106.948 101.641 107.495 101.703C107.543 101.71 107.59 101.713 107.639 101.713C108.3 101.713 108.851 101.193 108.925 100.502C108.962 100.141 108.865 99.786 108.649 99.5027C108.433 99.218 108.124 99.0403 107.78 99.0009C107.49 98.9679 107.139 98.8625 106.763 98.6979C106.114 98.4165 105.339 97.9309 104.52 97.2942C103.301 96.3478 102.154 95.2105 101.407 94.4223C100.982 93.9745 100.638 93.5894 100.425 93.3459C100.309 93.2127 100.218 93.1072 100.157 93.0365L100.089 92.9543L99.7008 93.3163L100.071 92.933L100.038 92.8934L99.994 92.8458L99.9546 92.8096C99.1636 92.0675 98.2784 91.4568 97.3182 90.9945C97.384 90.2455 97.5437 89.5249 97.7835 88.8452C97.7913 88.8237 97.7992 88.804 97.807 88.7827C97.8399 88.6905 97.8743 88.6001 97.9103 88.5095C97.9244 88.4749 97.9401 88.4404 97.9543 88.4056C97.9856 88.3299 98.0168 88.2542 98.0497 88.1818C98.0702 88.1358 98.092 88.093 98.1124 88.0484C98.1422 87.9843 98.1719 87.9217 98.2033 87.8578C98.2285 87.8083 98.2564 87.7589 98.2832 87.7079C98.3115 87.6536 98.3396 87.5976 98.371 87.5432C98.4008 87.4871 98.4337 87.4347 98.465 87.3802C98.4933 87.3326 98.5199 87.2832 98.5497 87.2356C98.5857 87.1765 98.6234 87.1188 98.6609 87.0594C98.6874 87.0182 98.714 86.977 98.7423 86.936C98.7846 86.8719 98.8301 86.8077 98.8754 86.7434C98.899 86.7104 98.9208 86.6777 98.9445 86.6445C98.9992 86.5722 99.054 86.4997 99.1089 86.4308C99.1277 86.4077 99.1433 86.3846 99.1606 86.3617C99.2279 86.2793 99.2954 86.2003 99.3627 86.1196C99.3722 86.1096 99.3814 86.0981 99.391 86.0882C99.4692 85.9977 99.5491 85.9088 99.6323 85.8216C99.7264 85.7246 99.8218 85.6292 99.919 85.5354C99.9473 85.509 99.9769 85.4843 100.005 85.458C100.073 85.3939 100.141 85.3312 100.212 85.2688C100.278 85.2127 100.347 85.1569 100.415 85.1026C100.447 85.0763 100.48 85.0484 100.513 85.0219C100.607 84.9479 100.704 84.8772 100.801 84.8063C100.809 84.8013 100.815 84.7948 100.823 84.7914C101.249 84.4885 101.705 84.2271 102.184 84.0147C102.415 83.9127 102.653 83.8205 102.894 83.7415C102.905 83.7365 102.914 83.7333 102.924 83.7299C103.027 83.6969 103.132 83.6658 103.236 83.6362C103.261 83.6296 103.286 83.623 103.312 83.6147C103.402 83.59 103.492 83.5703 103.583 83.5488C103.624 83.5406 103.663 83.5291 103.704 83.5209C103.782 83.5044 103.861 83.4912 103.941 83.4765C103.994 83.4668 104.047 83.455 104.1 83.447C104.171 83.4353 104.243 83.4287 104.313 83.419C104.376 83.4108 104.437 83.4008 104.5 83.3943C104.572 83.3877 104.647 83.3829 104.719 83.3779C104.78 83.373 104.84 83.3664 104.902 83.3632C105.02 83.3567 105.138 83.3549 105.257 83.3533C105.274 83.3533 105.291 83.3533 105.308 83.3533C105.329 83.3533 105.348 83.3533 105.368 83.3549C105.484 83.3549 105.6 83.3567 105.716 83.3632C105.778 83.3664 105.841 83.373 105.902 83.3779C105.974 83.3829 106.046 83.3879 106.117 83.3943C106.181 83.4026 106.244 83.4108 106.308 83.419C106.377 83.4287 106.447 83.4353 106.516 83.447C106.571 83.455 106.626 83.4667 106.679 83.4781C106.758 83.4912 106.836 83.5044 106.913 83.5209C106.953 83.5291 106.994 83.5406 107.037 83.5506C107.126 83.5703 107.217 83.5918 107.306 83.6149C107.331 83.6231 107.356 83.6298 107.381 83.6364C107.486 83.6659 107.589 83.6973 107.691 83.73C107.702 83.7334 107.712 83.7367 107.723 83.7417C107.964 83.8205 108.2 83.9127 108.434 84.0149C108.912 84.2287 109.368 84.4888 109.795 84.7916C109.8 84.795 109.805 84.798 109.811 84.8032C109.91 84.8738 110.008 84.9463 110.106 85.0236C110.137 85.0467 110.167 85.0731 110.198 85.0978C110.267 85.1552 110.337 85.2113 110.406 85.2705C110.474 85.3282 110.538 85.3891 110.604 85.45C110.635 85.4797 110.666 85.5058 110.699 85.5355C110.795 85.6294 110.892 85.7248 110.984 85.8218C111.078 85.9207 111.169 86.0227 111.258 86.1248C111.296 86.1676 111.332 86.2138 111.368 86.258C111.417 86.3156 111.465 86.3733 111.511 86.4309C112.006 87.063 112.415 87.7738 112.719 88.5406C112.723 88.5489 112.728 88.5571 112.731 88.5671C113.128 89.5743 113.336 90.6638 113.336 91.7862V121.846H113.335ZM154.107 134.241C154.104 134.287 154.099 134.333 154.096 134.377C154.091 134.474 154.085 134.57 154.076 134.665C154.071 134.713 154.065 134.759 154.06 134.807C154.049 134.899 154.04 134.994 154.026 135.086C154.021 135.126 154.013 135.165 154.007 135.205C153.991 135.304 153.974 135.406 153.955 135.504C153.95 135.531 153.944 135.557 153.938 135.583C153.916 135.695 153.892 135.807 153.864 135.917C153.863 135.927 153.86 135.939 153.856 135.949C153.759 136.344 153.635 136.725 153.487 137.096C153.233 137.723 152.909 138.314 152.525 138.853C152.508 138.878 152.487 138.904 152.468 138.931C152.41 139.01 152.351 139.09 152.29 139.168C152.24 139.234 152.186 139.296 152.133 139.361C152.102 139.398 152.07 139.438 152.037 139.476C151.95 139.578 151.859 139.678 151.766 139.775L151.765 139.777C151.75 139.79 151.736 139.803 151.722 139.818C151.644 139.9 151.562 139.983 151.481 140.06C151.439 140.1 151.395 140.139 151.353 140.177C151.3 140.228 151.245 140.277 151.188 140.327C151.113 140.391 151.036 140.453 150.96 140.516C150.936 140.534 150.912 140.554 150.889 140.574C150.789 140.651 150.687 140.728 150.584 140.802C150.582 140.802 150.582 140.804 150.58 140.804C150.156 141.105 149.702 141.367 149.224 141.581C148.868 141.739 148.5 141.871 148.119 141.974C148.116 141.976 148.113 141.976 148.11 141.977C147.992 142.009 147.875 142.037 147.757 142.063C147.745 142.066 147.731 142.07 147.718 142.073C147.607 142.098 147.493 142.117 147.38 142.137C147.361 142.14 147.342 142.144 147.324 142.147C147.211 142.165 147.096 142.18 146.982 142.193C146.963 142.195 146.944 142.2 146.924 142.2C146.8 142.215 146.675 142.225 146.549 142.231C146.54 142.233 146.531 142.233 146.523 142.234C146.387 142.241 146.25 142.246 146.112 142.246C146.111 142.246 146.111 142.246 146.109 142.246C146.101 142.246 146.095 142.246 146.089 142.246C145.949 142.246 145.846 142.246 145.771 142.243C145.674 142.241 145.63 142.236 145.559 142.224C145.498 142.214 145.42 142.2 145.31 142.178C145.241 142.091 145.171 142.005 145.098 141.92C144.854 141.63 144.5 141.462 144.13 141.462C143.814 141.462 143.509 141.584 143.272 141.806C142.738 142.305 142.689 143.166 143.164 143.727C143.604 144.247 143.975 144.815 144.278 145.42C144.279 145.424 144.281 145.427 144.282 145.43C144.356 145.578 144.423 145.726 144.488 145.875C144.494 145.886 144.499 145.899 144.503 145.911C144.566 146.057 144.624 146.205 144.677 146.352C144.679 146.353 144.679 146.357 144.68 146.358C144.69 146.388 144.699 146.416 144.709 146.446C144.74 146.536 144.773 146.628 144.801 146.721V146.722C145.063 147.568 145.193 148.45 145.193 149.329C145.191 151.584 144.329 153.743 142.816 155.321C142.714 155.427 142.609 155.53 142.501 155.633C142.409 155.718 142.315 155.802 142.219 155.884C140.794 157.097 139.015 157.764 137.173 157.764C137.038 157.764 136.905 157.759 136.771 157.752C136.717 157.749 136.664 157.744 136.611 157.741C136.531 157.734 136.451 157.729 136.37 157.721C136.305 157.713 136.243 157.703 136.179 157.696C136.109 157.686 136.039 157.677 135.97 157.667C135.904 157.655 135.839 157.643 135.773 157.63C135.704 157.617 135.635 157.604 135.567 157.591C135.505 157.576 135.442 157.563 135.381 157.548C135.304 157.528 135.227 157.51 135.151 157.489C135.099 157.474 135.047 157.459 134.997 157.444C134.9 157.417 134.803 157.385 134.707 157.354C134.677 157.342 134.648 157.334 134.618 157.323C134.475 157.273 134.333 157.217 134.192 157.158C134.441 156.199 134.568 155.211 134.568 154.214C134.566 153.131 134.389 151.988 134.054 150.91C133.481 149.072 132.487 147.494 131.181 146.348C130.435 145.695 129.594 145.188 128.679 144.842C127.701 144.474 126.633 144.286 125.505 144.286C124.791 144.286 124.209 144.895 124.209 145.646C124.209 146.396 124.791 147.005 125.503 147.005C126.589 147.006 127.573 147.235 128.431 147.686C129.544 148.272 130.466 149.253 131.101 150.527C131.66 151.646 131.979 152.989 131.978 154.214C131.978 155.537 131.687 156.814 131.141 157.966C131.135 157.976 131.129 157.989 131.123 157.999C130.838 158.595 130.487 159.149 130.084 159.653C130.064 159.678 130.043 159.702 130.021 159.727C129.896 159.882 129.764 160.033 129.628 160.176C129.627 160.176 129.627 160.176 129.627 160.176V160.178C129.611 160.194 129.595 160.207 129.579 160.224C129.501 160.304 129.423 160.385 129.341 160.461C129.297 160.504 129.25 160.545 129.205 160.586C129.153 160.633 129.103 160.681 129.05 160.727C128.97 160.795 128.89 160.859 128.81 160.925C128.79 160.941 128.77 160.958 128.749 160.974C128.234 161.379 127.673 161.718 127.075 161.985C126.836 162.09 126.594 162.182 126.346 162.264C126.343 162.266 126.34 162.266 126.337 162.268C126.23 162.302 126.121 162.335 126.011 162.365C125.99 162.371 125.97 162.378 125.95 162.383C125.856 162.409 125.762 162.429 125.668 162.452C125.63 162.46 125.593 162.47 125.556 162.478C125.475 162.495 125.394 162.508 125.314 162.524C125.262 162.533 125.21 162.544 125.159 162.551C125.086 162.564 125.015 162.571 124.941 162.58C124.88 162.589 124.82 162.597 124.759 162.604C124.686 162.612 124.612 162.617 124.537 162.622C124.477 162.627 124.418 162.633 124.357 162.636C124.239 162.643 124.122 162.645 124.003 162.645C123.986 162.645 123.968 162.646 123.951 162.646C123.931 162.646 123.912 162.645 123.892 162.645C123.776 162.645 123.658 162.643 123.544 162.636C123.483 162.633 123.42 162.627 123.359 162.622C123.287 162.617 123.215 162.612 123.143 162.604C123.08 162.597 123.017 162.587 122.956 162.58C122.884 162.571 122.814 162.563 122.743 162.551C122.69 162.544 122.637 162.533 122.583 162.523C122.504 162.508 122.425 162.495 122.345 162.478C122.306 162.47 122.268 162.459 122.229 162.45C122.137 162.429 122.044 162.408 121.953 162.383C121.93 162.376 121.908 162.37 121.886 162.363C121.778 162.333 121.67 162.302 121.565 162.268C121.56 162.266 121.554 162.264 121.549 162.263C121.302 162.182 121.062 162.09 120.826 161.985C120.229 161.718 119.666 161.379 119.152 160.974C119.13 160.958 119.109 160.938 119.087 160.921C119.008 160.857 118.928 160.794 118.852 160.727C118.794 160.676 118.737 160.623 118.681 160.572C118.642 160.536 118.599 160.5 118.56 160.462C118.463 160.37 118.367 160.274 118.275 160.177C118.181 160.078 118.09 159.978 118.001 159.875C117.949 159.815 117.899 159.751 117.849 159.69C117.816 159.649 117.781 159.608 117.749 159.568C117.254 158.936 116.845 158.225 116.541 157.459C116.536 157.449 116.531 157.442 116.527 157.432C116.132 156.425 115.923 155.336 115.923 154.213V120.508C117.579 120.574 119.025 120.775 120.224 121.104C121.372 121.417 122.301 121.841 123.061 122.398C123.631 122.815 124.093 123.299 124.479 123.88C125.033 124.715 125.428 125.758 125.757 127.262C125.867 127.759 125.961 128.26 126.059 128.79C126.152 129.28 126.247 129.79 126.355 130.292C126.562 131.248 126.772 131.969 127.035 132.634C127.286 133.269 127.576 133.822 127.923 134.321C128.515 135.179 129.282 135.873 130.201 136.387C131.182 136.936 132.333 137.295 133.723 137.482C133.779 137.491 133.834 137.496 133.89 137.496C134.537 137.496 135.089 136.985 135.172 136.307C135.217 135.949 135.125 135.59 134.914 135.303C134.702 135.015 134.396 134.833 134.055 134.785C132.811 134.617 131.844 134.29 131.101 133.789C130.56 133.424 130.148 132.979 129.806 132.39C129.54 131.93 129.318 131.373 129.125 130.685C128.918 129.956 128.766 129.148 128.607 128.292C128.514 127.8 128.419 127.29 128.307 126.775C128.112 125.867 127.817 124.673 127.271 123.511C126.855 122.632 126.33 121.852 125.707 121.192C124.653 120.072 123.243 119.221 121.518 118.661C119.954 118.156 118.122 117.868 115.924 117.789V107.97H123.432C124.147 107.97 124.728 107.358 124.728 106.609C124.728 105.858 124.147 105.248 123.432 105.248H115.924V91.7855C115.924 90.6631 116.132 89.5736 116.527 88.5664C116.532 88.5564 116.537 88.5482 116.541 88.5399C116.845 87.7729 117.254 87.0621 117.749 86.4302C117.776 86.3971 117.804 86.3643 117.83 86.3314C117.887 86.2623 117.943 86.1914 118.003 86.1224C118.072 86.0417 118.142 85.966 118.214 85.8886C118.235 85.8671 118.253 85.8442 118.275 85.8209C118.368 85.7225 118.465 85.6268 118.562 85.5346C118.59 85.5083 118.618 85.4836 118.647 85.4573C118.715 85.3932 118.784 85.3305 118.853 85.268C118.921 85.212 118.988 85.1561 119.057 85.1019C119.09 85.0756 119.121 85.0476 119.154 85.0211C119.25 84.9472 119.345 84.8765 119.444 84.8056C119.452 84.8006 119.458 84.7941 119.464 84.7907C119.892 84.4878 120.348 84.2264 120.826 84.014C121.057 83.9119 121.295 83.8197 121.537 83.7408C121.548 83.7358 121.557 83.7325 121.568 83.7291C121.668 83.6962 121.773 83.665 121.878 83.6355C121.903 83.6289 121.928 83.6222 121.953 83.614C122.044 83.5893 122.135 83.5696 122.226 83.5481C122.265 83.5399 122.306 83.5284 122.345 83.5202C122.425 83.5037 122.505 83.4905 122.583 83.4758C122.637 83.4661 122.69 83.4543 122.743 83.4462C122.813 83.4346 122.884 83.428 122.956 83.4183C123.017 83.4101 123.08 83.4001 123.143 83.3936C123.215 83.387 123.288 83.3821 123.362 83.3771C123.423 83.3723 123.483 83.3657 123.544 83.3625C123.661 83.356 123.78 83.3542 123.899 83.3526C123.916 83.3526 123.934 83.3526 123.951 83.3526C123.97 83.3526 123.99 83.3526 124.01 83.3542C124.126 83.3542 124.242 83.356 124.357 83.3625C124.419 83.3657 124.482 83.3723 124.544 83.3771C124.617 83.3821 124.689 83.3872 124.759 83.3936C124.822 83.4018 124.886 83.4101 124.95 83.4183C125.019 83.428 125.09 83.4346 125.157 83.4462C125.213 83.4543 125.267 83.4659 125.321 83.4774C125.398 83.4905 125.477 83.5037 125.553 83.5202C125.596 83.5284 125.636 83.5399 125.677 83.5499C125.766 83.5696 125.857 83.5911 125.946 83.6142C125.973 83.6224 125.998 83.6291 126.023 83.6357C126.127 83.6652 126.232 83.6966 126.333 83.7293C126.343 83.7327 126.354 83.7359 126.363 83.741C126.606 83.8197 126.844 83.9119 127.074 84.0142C127.554 84.228 128.009 84.4881 128.437 84.7909C128.442 84.7943 128.446 84.7973 128.451 84.8025C128.551 84.8731 128.65 84.9456 128.747 85.0229C128.777 85.046 128.808 85.0723 128.838 85.0971C128.909 85.1545 128.979 85.2106 129.047 85.2698C129.114 85.3275 129.18 85.3884 129.245 85.4492C129.277 85.479 129.31 85.5051 129.34 85.5348C129.437 85.6286 129.532 85.7241 129.626 85.8211C129.709 85.9085 129.789 85.9973 129.869 86.0877C129.871 86.0893 129.871 86.0911 129.872 86.0927C129.949 86.1797 130.024 86.2703 130.096 86.3609C130.112 86.3806 130.126 86.4003 130.14 86.4184C130.2 86.4925 130.258 86.5683 130.314 86.644C130.337 86.677 130.358 86.7099 130.381 86.7411C130.427 86.8053 130.472 86.8694 130.516 86.9353C130.544 86.9765 130.571 87.0193 130.597 87.0603C130.635 87.1179 130.673 87.1756 130.709 87.2347C130.738 87.2823 130.767 87.3317 130.795 87.3811C130.826 87.4338 130.858 87.4882 130.887 87.5425C130.919 87.5969 130.947 87.6528 130.976 87.7102C131.003 87.7582 131.03 87.8074 131.055 87.8569C131.086 87.921 131.116 87.9869 131.147 88.051C131.168 88.0937 131.188 88.1365 131.208 88.1809C131.241 88.2551 131.273 88.3308 131.304 88.4081C131.318 88.4409 131.334 88.474 131.348 88.51C131.384 88.599 131.418 88.6912 131.453 88.7834C131.459 88.8049 131.467 88.8246 131.475 88.8443C131.714 89.524 131.874 90.2448 131.94 90.9954C130.98 91.4578 130.095 92.0668 129.302 92.8089C128.769 93.3092 128.724 94.1716 129.199 94.7313C129.444 95.0194 129.795 95.1856 130.165 95.1856C130.483 95.1856 130.789 95.062 131.027 94.84C132.025 93.9034 133.217 93.2535 134.497 92.9308C134.79 92.8583 135.086 92.8025 135.382 92.7631C135.416 92.7581 135.451 92.7548 135.485 92.7514C135.595 92.7368 135.706 92.7269 135.817 92.7203C135.857 92.7169 135.899 92.7137 135.94 92.7103C136.077 92.7036 136.217 92.6972 136.356 92.6972C136.361 92.6972 136.366 92.6972 136.369 92.6972C138.512 92.6988 140.566 93.5992 142.065 95.1856C142.165 95.2909 142.264 95.4011 142.361 95.5147C142.441 95.6099 142.519 95.7055 142.594 95.801C142.665 95.8932 142.734 95.9854 142.8 96.0792C142.804 96.0856 142.809 96.0907 142.814 96.0971C142.875 96.1845 142.933 96.2715 142.991 96.3605C143 96.3752 143.011 96.39 143.02 96.4049C143.072 96.484 143.119 96.563 143.166 96.6435C143.183 96.6699 143.199 96.6946 143.215 96.7227C143.254 96.79 143.291 96.8591 143.329 96.93C143.349 96.9696 143.373 97.0092 143.393 97.0487C143.423 97.1046 143.449 97.1622 143.478 97.2197C143.504 97.2725 143.533 97.3284 143.558 97.3826C143.578 97.427 143.598 97.4731 143.619 97.5176C143.647 97.585 143.678 97.6526 143.705 97.7218C143.72 97.7595 143.734 97.7975 143.75 97.8353C143.78 97.911 143.81 97.9866 143.836 98.0623C143.849 98.0985 143.86 98.1348 143.874 98.171C143.9 98.2498 143.926 98.3271 143.951 98.4063C143.962 98.4424 143.971 98.4788 143.982 98.5149C144.005 98.5939 144.029 98.6729 144.049 98.7536C144.06 98.7964 144.07 98.8392 144.081 98.8818C144.1 98.9543 144.117 99.0268 144.132 99.1008C144.145 99.16 144.158 99.2209 144.168 99.2818C144.179 99.338 144.19 99.3939 144.201 99.4513C144.215 99.5387 144.228 99.6275 144.241 99.7165C144.245 99.7444 144.25 99.7756 144.254 99.8053C144.302 100.169 144.325 100.539 144.325 100.916C144.325 101.089 144.319 101.262 144.308 101.436C144.306 101.474 144.303 101.512 144.301 101.552C144.289 101.716 144.273 101.882 144.251 102.049C144.247 102.087 144.24 102.124 144.236 102.162C144.217 102.301 144.195 102.437 144.168 102.574C144.161 102.618 144.153 102.663 144.145 102.707C144.112 102.86 144.076 103.013 144.038 103.166C144.024 103.224 144.009 103.281 143.993 103.339C143.955 103.474 143.916 103.607 143.872 103.741C143.855 103.796 143.835 103.852 143.817 103.909C143.774 104.037 143.726 104.162 143.678 104.287C143.658 104.34 143.637 104.392 143.615 104.443C143.554 104.593 143.489 104.744 143.42 104.893C143.401 104.932 143.38 104.971 143.36 105.013C143.291 105.156 143.216 105.301 143.139 105.442C142.945 105.794 142.732 106.137 142.494 106.466C142.463 106.504 142.433 106.545 142.406 106.586C142.167 106.907 141.916 107.208 141.661 107.478C141.194 107.973 140.534 108.48 139.756 108.946C138.59 109.642 137.321 110.155 136.461 110.462C135.971 110.638 135.56 110.766 135.303 110.843C135.164 110.883 135.054 110.916 134.979 110.936L134.879 110.962C134.185 111.14 133.757 111.877 133.925 112.605C134.066 113.219 134.583 113.645 135.183 113.645C135.286 113.645 135.389 113.632 135.49 113.607C135.626 113.572 136.871 113.245 138.441 112.596C139.394 112.201 140.266 111.768 141.034 111.311C142.044 110.708 142.85 110.08 143.5 109.392C143.705 109.176 143.905 108.946 144.1 108.707C144.297 108.711 144.496 108.724 144.695 108.74C144.703 108.744 144.712 108.745 144.722 108.745C144.825 108.755 144.897 108.762 144.939 108.765C144.942 108.767 144.946 108.767 144.947 108.767C144.96 108.767 144.971 108.77 144.975 108.77H144.977H144.978C145.021 108.777 145.063 108.783 145.105 108.79C145.177 108.801 145.251 108.81 145.323 108.823C146.67 109.066 147.924 109.687 148.956 110.615C148.967 110.625 148.976 110.635 148.987 110.644C149.052 110.702 149.114 110.763 149.177 110.824C149.199 110.845 149.222 110.867 149.246 110.888C149.293 110.936 149.34 110.987 149.387 111.038C149.421 111.072 149.456 111.107 149.489 111.145C149.515 111.173 149.539 111.202 149.564 111.23C149.616 111.288 149.667 111.346 149.717 111.405V111.406C149.851 111.564 149.976 111.729 150.096 111.898C150.109 111.918 150.123 111.936 150.139 111.956C150.183 112.02 150.225 112.088 150.269 112.152C150.289 112.183 150.311 112.216 150.331 112.249C150.367 112.307 150.402 112.364 150.438 112.423C150.463 112.466 150.488 112.507 150.513 112.548C150.543 112.601 150.569 112.654 150.599 112.705C150.626 112.756 150.656 112.807 150.682 112.858C150.706 112.904 150.726 112.95 150.75 112.996C150.778 113.056 150.809 113.115 150.837 113.176C150.855 113.214 150.87 113.253 150.888 113.292C150.919 113.361 150.95 113.431 150.979 113.5C150.991 113.531 151.002 113.562 151.016 113.593C151.046 113.673 151.077 113.752 151.107 113.832C151.115 113.855 151.123 113.882 151.132 113.905C151.162 113.992 151.192 114.079 151.22 114.168C151.226 114.186 151.231 114.204 151.235 114.224C151.265 114.318 151.293 114.413 151.319 114.509C151.322 114.523 151.325 114.536 151.328 114.551C151.354 114.652 151.38 114.751 151.401 114.853C151.405 114.866 151.406 114.879 151.409 114.892C151.431 114.994 151.452 115.098 151.47 115.2C151.473 115.218 151.475 115.234 151.478 115.251C151.494 115.35 151.511 115.45 151.523 115.55C151.527 115.577 151.528 115.603 151.533 115.628C151.544 115.72 151.553 115.812 151.563 115.904C151.566 115.949 151.569 115.993 151.57 116.037C151.577 116.113 151.583 116.187 151.586 116.261C151.591 116.381 151.594 116.502 151.594 116.623C151.594 116.786 151.588 116.951 151.578 117.115C151.569 117.278 151.555 117.445 151.536 117.609C151.534 117.616 151.533 117.621 151.533 117.627C151.519 117.752 151.5 117.877 151.48 117.999C151.476 118.019 151.472 118.037 151.469 118.055C151.45 118.17 151.428 118.284 151.403 118.397C151.403 118.402 151.401 118.407 151.4 118.411C151.088 119.829 150.408 121.133 149.441 122.171C149.432 122.181 149.424 122.189 149.415 122.199C149.341 122.278 149.264 122.357 149.186 122.433C149.167 122.451 149.149 122.469 149.128 122.489C148.951 122.657 148.768 122.82 148.575 122.973C147.756 122.763 146.921 122.658 146.086 122.658C143.669 122.658 141.306 123.536 139.43 125.125C138.875 125.596 138.787 126.455 139.235 127.038C139.483 127.36 139.85 127.545 140.244 127.545C140.539 127.545 140.827 127.437 141.057 127.243C142.495 126.024 144.236 125.379 146.087 125.379C146.7 125.379 147.308 125.451 147.898 125.596C148.124 125.78 148.409 125.886 148.699 125.886C148.735 125.886 148.771 125.884 148.809 125.881C149.144 126.007 149.462 126.152 149.756 126.312C149.763 126.315 149.769 126.318 149.774 126.322L149.778 126.323V126.325L149.782 126.327C150.076 126.486 150.358 126.667 150.631 126.863C150.656 126.881 150.682 126.898 150.707 126.916C150.722 126.926 150.734 126.939 150.748 126.949C151.613 127.599 152.352 128.423 152.915 129.375C153.012 129.539 153.103 129.707 153.189 129.878C153.206 129.911 153.22 129.946 153.236 129.98C153.305 130.12 153.371 130.26 153.432 130.402C153.441 130.426 153.451 130.452 153.46 130.476C153.523 130.632 153.584 130.787 153.638 130.946C153.643 130.959 153.646 130.974 153.651 130.987C153.709 131.157 153.762 131.327 153.809 131.501C153.811 131.511 153.812 131.521 153.816 131.531C153.863 131.707 153.905 131.885 153.942 132.064C153.946 132.085 153.949 132.105 153.952 132.126C153.985 132.294 154.014 132.465 154.036 132.636C154.044 132.697 154.049 132.758 154.055 132.821C154.071 132.952 154.087 133.084 154.094 133.218C154.109 133.413 154.115 133.613 154.115 133.812C154.116 133.957 154.113 134.101 154.107 134.241Z" fill="white"/>
<defs>
<filter id="filter0_d_0_1" x="51" y="63" width="128" height="128" filterUnits="userSpaceOnUse" color-interpolation-filters="sRGB">
<feFlood flood-opacity="0" result="BackgroundImageFix"/>
<feColorMatrix in="SourceAlpha" type="matrix" values="0 0 0 0 0 0 0 0 0 0 0 0 0 0 0 0 0 0 127 0" result="hardAlpha"/>
<feOffset dy="4"/>
<feGaussianBlur stdDeviation="2"/>
<feComposite in2="hardAlpha" operator="out"/>
<feColorMatrix type="matrix" values="0 0 0 0 0 0 0 0 0 0 0 0 0 0 0 0 0 0 0.25 0"/>
<feBlend mode="normal" in2="BackgroundImageFix" result="effect1_dropShadow_0_1"/>
<feBlend mode="normal" in="SourceGraphic" in2="effect1_dropShadow_0_1" result="shape"/>
</filter>
<linearGradient id="paint0_linear_0_1" x1="114.5" y1="30" x2="114.5" y2="204.16" gradientUnits="userSpaceOnUse">
<stop stop-color="white"/>
<stop offset="1" stop-color="#666666"/>
</linearGradient>
<linearGradient id="paint1_linear_0_1" x1="114.5" y1="40" x2="114.5" y2="195.332" gradientUnits="userSpaceOnUse">
<stop stop-color="white"/>
<stop offset="1" stop-color="#666666"/>
</linearGradient>
<linearGradient id="paint2_linear_0_1" x1="114.5" y1="50" x2="114.5" y2="186.504" gradientUnits="userSpaceOnUse">
<stop stop-color="white"/>
<stop offset="1" stop-color="#666666"/>
</linearGradient>
</defs>
</svg>
