<?xml version="1.0" standalone="no"?>
<!DOCTYPE svg PUBLIC "-//W3C//DTD SVG 20010904//EN"
 "http://www.w3.org/TR/2001/REC-SVG-20010904/DTD/svg10.dtd">
<svg version="1.0" xmlns="http://www.w3.org/2000/svg"
 width="984.000000pt" height="984.000000pt" viewBox="0 0 984.000000 984.000000"
 preserveAspectRatio="xMidYMid meet">
<metadata>
Created by potrace 1.14, written by Peter Selinger 2001-2017
</metadata>
<g transform="translate(0.000000,984.000000) scale(0.100000,-0.100000)"
fill="#000000" stroke="none">
<path d="M4792 9813 c-266 -55 -411 -344 -298 -593 43 -94 147 -191 236 -219
60 -19 82 -38 70 -61 -5 -10 -7 -20 -4 -23 9 -9 10 -77 2 -77 -4 0 -3 -11 2
-25 6 -15 6 -25 0 -25 -5 0 -5 -12 0 -29 5 -19 4 -33 -3 -40 -8 -8 -8 -11 1
-11 8 0 9 -7 2 -24 -5 -15 -5 -27 3 -35 8 -8 5 -11 -14 -12 -145 -6 -303 -17
-341 -24 -12 -3 -46 -7 -76 -10 -30 -3 -57 -7 -61 -9 -3 -2 -29 -7 -56 -10
-28 -4 -76 -13 -107 -20 -31 -7 -62 -9 -70 -5 -8 4 -20 4 -27 -1 -8 -4 -27 -4
-42 0 -16 5 -29 5 -29 0 0 -5 -13 -5 -30 0 -17 5 -30 5 -30 0 0 -5 -12 -5 -27
-1 -30 7 -91 6 -100 -3 -3 -2 -16 -1 -29 4 -13 5 -26 5 -29 1 -3 -5 -21 -5
-40 -1 -19 4 -37 4 -40 0 -3 -4 -20 -5 -37 -1 -18 4 -47 4 -65 1 -18 -4 -36
-3 -42 3 -8 8 -11 8 -11 0 0 -6 -13 -8 -37 -4 -21 4 -53 4 -71 0 -18 -3 -35
-3 -38 2 -2 4 -15 4 -27 0 -12 -5 -32 -5 -44 0 -12 4 -25 4 -28 0 -3 -5 -20
-6 -38 -2 -18 5 -41 5 -52 1 -11 -4 -30 -4 -42 1 -12 5 -25 4 -28 0 -3 -5 -21
-5 -40 -1 -19 4 -35 4 -35 0 0 -4 -17 -4 -37 -1 -21 4 -51 4 -68 1 -16 -4 -40
-3 -52 1 -13 5 -25 4 -28 -1 -11 -17 -45 9 -45 33 0 13 -5 28 -12 35 -7 7 -9
12 -4 12 4 0 -1 12 -12 28 -11 15 -19 30 -18 34 0 4 -19 30 -44 58 -87 98
-204 149 -331 144 -81 -4 -98 -7 -166 -39 -217 -99 -311 -363 -205 -575 88
-177 322 -280 499 -219 21 7 40 14 43 14 26 4 90 47 134 90 50 48 106 136 113
178 7 40 22 57 45 48 12 -4 37 -5 55 -1 18 5 35 5 37 1 6 -8 48 -7 63 2 7 4
14 3 18 -2 3 -7 15 -7 30 -1 15 6 27 6 30 0 4 -7 13 -7 24 0 12 6 22 5 29 -2
9 -9 12 -9 12 0 0 9 5 10 17 4 9 -6 29 -6 45 -2 16 5 30 5 33 -1 4 -5 14 -5
26 1 14 8 19 7 19 -1 0 -8 4 -8 13 -1 8 7 18 7 27 2 9 -5 19 -5 26 1 8 7 14 6
19 -1 4 -7 12 -7 25 0 10 6 21 6 24 2 5 -9 59 -8 73 1 5 3 15 2 23 -3 9 -5 19
-5 27 2 9 7 13 7 13 -1 0 -10 -55 -40 -85 -45 -5 -1 -29 -12 -51 -24 -23 -11
-44 -18 -48 -15 -3 4 -6 1 -6 -5 0 -6 -13 -13 -30 -17 -16 -4 -30 -11 -30 -16
0 -5 -6 -9 -13 -9 -7 0 -28 -8 -47 -18 -19 -11 -73 -39 -120 -64 -92 -49 -245
-141 -272 -166 -10 -8 -18 -12 -18 -9 0 6 -27 -13 -55 -40 -8 -7 -16 -13 -20
-13 -6 0 -134 -96 -182 -136 -12 -11 -39 -32 -60 -49 -98 -79 -330 -307 -418
-411 -22 -26 -52 -61 -67 -78 -15 -17 -30 -39 -34 -48 -3 -10 -9 -18 -13 -18
-4 0 -29 -30 -56 -67 -27 -38 -53 -69 -57 -71 -5 -2 -8 -8 -8 -14 0 -6 -12
-27 -27 -47 -32 -42 -30 -39 -122 -191 -38 -63 -80 -138 -92 -165 -13 -28 -29
-56 -36 -62 -6 -7 -14 -26 -18 -43 -4 -16 -10 -30 -14 -30 -4 0 -13 -17 -20
-37 -8 -21 -27 -65 -42 -97 -16 -33 -29 -64 -29 -70 0 -6 -7 -24 -15 -39 -15
-29 -112 -315 -119 -351 -2 -12 -13 -55 -24 -96 -11 -41 -25 -100 -31 -130 -6
-30 -13 -66 -16 -80 -3 -14 -8 -41 -11 -60 -2 -19 -6 -46 -9 -60 -14 -72 -26
-177 -30 -250 -3 -36 -5 -65 -5 -65 -1 0 -3 -33 -5 -73 -1 -40 -5 -76 -9 -79
-3 -3 -1 -14 5 -24 29 -55 -37 -1 -210 172 l-191 191 -231 -231 -231 -231 231
-231 231 -232 192 192 c105 105 195 190 201 188 5 -1 11 -45 13 -97 2 -52 6
-113 9 -135 3 -22 7 -65 10 -95 3 -30 10 -81 16 -113 6 -33 12 -73 14 -90 2
-18 9 -52 15 -76 6 -24 8 -46 5 -49 -2 -3 0 -11 6 -19 6 -7 9 -13 6 -13 -2 0
4 -33 15 -72 10 -40 21 -82 24 -93 24 -117 181 -547 214 -590 4 -5 13 -27 19
-47 7 -21 17 -38 22 -38 5 0 9 -6 9 -14 0 -7 18 -46 40 -86 22 -40 40 -74 40
-76 0 -6 135 -223 166 -267 19 -26 34 -51 34 -56 0 -5 3 -11 8 -13 4 -1 34
-39 67 -83 33 -44 68 -89 77 -100 39 -44 48 -55 44 -55 -6 0 119 -134 219
-234 109 -109 228 -217 281 -255 19 -13 34 -28 34 -33 0 -4 5 -8 10 -8 6 0 16
-5 23 -10 50 -42 74 -61 169 -126 58 -41 111 -74 117 -74 6 0 11 -4 11 -8 0
-5 15 -16 33 -25 17 -10 48 -27 67 -39 19 -11 62 -35 95 -53 33 -18 76 -42 97
-53 20 -11 39 -18 42 -15 3 4 6 1 6 -5 0 -7 4 -12 10 -12 5 0 45 -16 87 -36
163 -76 293 -125 307 -117 7 4 7 1 -1 -7 -11 -12 -83 -21 -83 -10 0 7 -55 4
-68 -4 -6 -3 -13 -2 -17 4 -3 5 -14 7 -23 2 -15 -6 -47 -8 -62 -2 -16 6 -70 4
-70 -3 0 -4 -8 -3 -18 2 -11 6 -24 6 -35 0 -11 -7 -17 -7 -17 0 0 7 -8 7 -26
1 -14 -6 -23 -6 -20 -1 4 5 -9 6 -29 1 -19 -4 -35 -5 -35 -1 0 8 -48 7 -56 -2
-4 -3 -15 -2 -25 3 -12 7 -20 7 -24 0 -4 -7 -12 -7 -25 0 -13 7 -21 7 -25 0
-5 -8 -11 -8 -20 0 -9 8 -15 8 -20 0 -4 -6 -12 -7 -22 -1 -9 4 -31 5 -50 1
-27 -7 -35 -5 -43 10 -6 10 -10 24 -10 29 0 15 -41 102 -60 126 -29 38 -124
124 -131 119 -4 -2 -12 4 -18 13 -6 10 -11 15 -11 11 0 -4 -17 0 -37 9 -94 39
-220 38 -313 -3 -70 -31 -84 -40 -138 -93 -53 -52 -106 -144 -119 -208 -8 -36
-7 -150 1 -182 14 -58 38 -121 47 -121 5 0 9 -6 9 -14 0 -19 116 -136 135
-136 8 0 15 -4 15 -8 0 -4 15 -13 32 -21 160 -63 320 -41 451 61 43 34 113
132 123 172 3 14 10 28 14 31 5 3 7 14 5 25 -3 18 2 20 38 20 23 0 65 1 94 1
28 1 56 -2 62 -6 6 -3 11 -2 11 4 0 6 11 7 28 3 15 -4 41 -6 57 -5 56 5 136 5
142 0 3 -3 15 -2 27 2 11 5 30 5 41 1 11 -4 31 -4 45 0 14 4 35 4 46 0 11 -5
27 -4 34 0 7 5 24 4 36 0 13 -5 26 -5 29 -1 3 5 21 5 40 1 19 -4 35 -4 35 0 0
5 12 5 28 2 15 -4 41 -6 57 -5 66 6 133 5 144 -1 6 -4 11 -3 11 3 0 6 11 7 28
3 15 -4 38 -6 52 -5 68 6 150 7 150 3 0 -10 70 2 77 13 3 6 1 7 -5 3 -8 -4
-10 -2 -6 8 4 11 13 12 35 6 16 -5 53 -12 82 -15 28 -4 54 -8 57 -10 3 -2 30
-6 60 -9 30 -4 66 -8 80 -11 39 -8 164 -16 280 -20 l105 -3 3 -191 3 -190 -27
-7 c-61 -15 -149 -68 -198 -118 -47 -49 -93 -124 -101 -164 -2 -9 -4 -18 -5
-19 -2 -2 -4 -7 -5 -13 -1 -5 -3 -11 -5 -12 -8 -11 -5 -141 5 -175 7 -23 11
-44 8 -46 -2 -3 10 -28 27 -56 16 -29 30 -54 30 -57 0 -9 83 -88 117 -112 17
-12 33 -19 37 -15 3 3 6 2 6 -4 0 -6 12 -14 28 -18 15 -5 32 -9 37 -11 78 -22
158 -25 220 -7 28 8 56 14 63 15 6 1 12 5 12 10 0 4 3 7 8 6 12 -3 62 24 62
34 0 4 6 8 14 8 16 0 106 99 106 118 0 6 4 12 8 12 18 0 55 133 55 199 0 71
-10 140 -23 156 -5 6 -9 15 -10 20 -13 83 -168 220 -282 248 -30 8 -37 37 -27
118 3 26 3 54 0 62 -4 9 -4 60 -1 113 l5 98 90 4 c50 2 107 5 127 5 21 1 38 4
38 7 0 3 17 5 38 6 49 1 104 9 237 33 134 25 125 25 125 2 0 -10 9 -21 20 -24
11 -3 20 -2 20 1 0 8 120 5 127 -2 3 -3 15 -1 27 3 11 5 30 5 41 1 11 -4 31
-4 45 0 14 4 35 4 46 0 11 -5 27 -4 34 0 7 5 24 4 36 0 13 -5 26 -5 29 -1 3 5
21 5 40 1 19 -4 35 -4 35 0 0 5 12 5 28 2 15 -4 41 -6 57 -5 66 6 133 5 144
-1 6 -4 11 -3 11 3 0 6 11 7 28 2 15 -3 43 -5 62 -3 19 1 46 4 60 5 14 1 40
-1 58 -4 17 -4 32 -3 32 1 0 5 13 5 29 0 15 -4 34 -4 41 0 7 4 26 4 41 0 16
-5 29 -5 29 -1 0 5 15 6 33 4 17 -3 38 -5 45 -4 68 3 85 1 97 -9 8 -7 15 -18
15 -25 0 -21 42 -115 52 -115 5 0 6 -4 3 -10 -3 -5 -2 -10 3 -10 6 0 19 -15
31 -32 11 -18 21 -29 21 -25 0 4 11 -2 25 -15 55 -52 88 -70 176 -92 81 -21
224 -7 267 27 6 5 12 6 12 3 0 -12 90 54 131 97 67 69 119 201 113 287 -10
152 -60 250 -175 345 -58 49 -175 83 -269 79 -110 -4 -225 -57 -297 -137 -34
-38 -99 -147 -88 -147 4 0 3 -6 -3 -12 -10 -13 -12 -19 -12 -37 0 -5 -9 -11
-20 -14 -11 -3 -20 -1 -20 3 0 5 -13 5 -30 0 -16 -5 -32 -5 -34 -2 -5 9 -70 7
-85 -2 -5 -4 -12 -2 -15 3 -3 4 -24 5 -46 1 -22 -4 -40 -4 -40 1 0 4 -13 4
-30 -1 -16 -5 -30 -6 -30 -2 0 8 -53 8 -66 -1 -6 -3 -16 -2 -23 3 -8 4 -26 4
-41 0 -15 -4 -34 -4 -43 1 -10 6 -18 5 -22 -1 -5 -8 -11 -8 -20 0 -9 8 -15 8
-20 0 -3 -6 -11 -8 -16 -5 -17 11 -49 14 -49 5 0 -6 -10 -6 -25 0 -14 5 -25 6
-25 2 0 -10 -129 -7 -133 3 -3 10 179 85 187 77 3 -3 6 -1 6 5 0 9 21 20 40
20 3 0 25 11 50 24 25 13 47 23 50 24 5 1 163 80 220 111 19 11 37 22 38 27 2
4 8 7 13 7 10 0 158 92 265 165 49 33 181 133 198 150 9 9 16 14 16 11 0 -3
10 5 23 17 43 41 119 107 123 107 13 0 309 309 376 393 107 134 140 180 215
292 48 72 92 133 98 137 5 4 7 8 2 8 -4 0 4 18 18 40 23 37 58 99 122 219 12
24 23 50 23 57 0 8 4 14 8 14 4 0 14 17 22 38 7 20 25 64 40 97 15 33 34 78
41 100 8 22 17 42 20 45 3 3 10 19 14 35 10 34 9 34 18 58 4 9 10 25 14 35 3
9 7 19 7 22 9 41 31 108 39 117 5 7 7 13 4 13 -2 0 6 37 20 83 13 45 26 96 28
112 3 17 8 44 12 60 4 17 7 32 8 35 1 3 5 25 9 50 5 25 10 54 12 65 16 82 35
224 39 296 1 25 4 50 6 55 2 5 4 43 4 84 0 41 5 78 10 82 6 4 28 8 50 8 39 0
47 -6 232 -191 l191 -191 226 226 c124 124 226 230 226 236 0 6 -102 112 -226
236 l-227 226 -174 -174 c-96 -95 -183 -182 -194 -192 -14 -15 -30 -19 -61
-17 -50 3 -62 9 -49 25 6 7 8 16 5 19 -4 4 -8 44 -11 89 -8 170 -17 259 -43
408 -23 137 -40 218 -62 300 -11 41 -21 80 -22 85 -11 45 -68 227 -83 265 -4
8 -7 17 -8 20 -1 3 -5 14 -10 25 -4 11 -21 53 -37 94 -16 40 -42 102 -58 137
-17 35 -30 67 -30 72 0 5 -7 15 -15 22 -9 7 -13 15 -11 18 3 2 -5 23 -18 46
-13 22 -40 73 -61 111 -43 79 -183 303 -202 323 -7 7 -20 26 -30 42 -9 17 -21
30 -25 30 -4 0 -8 6 -8 14 0 8 -3 16 -7 18 -5 2 -28 30 -53 63 -25 33 -50 65
-56 70 -6 6 -37 42 -70 80 -68 80 -265 279 -343 345 -29 25 -63 54 -75 65 -11
11 -37 31 -56 45 -19 13 -39 30 -43 37 -4 7 -12 13 -18 13 -5 0 -19 8 -30 19
-11 10 -45 36 -77 57 -31 21 -63 45 -70 51 -7 7 -17 13 -21 13 -4 0 -18 9 -31
20 -13 11 -29 20 -37 20 -7 0 -13 4 -13 8 0 5 -12 15 -27 23 -16 7 -45 24 -66
37 -84 51 -268 146 -367 190 -63 28 -196 82 -215 88 -103 31 -96 33 105 35
107 1 199 1 203 0 14 -2 48 -3 202 -2 234 1 237 0 242 -29 11 -71 95 -192 167
-238 61 -40 84 -51 90 -44 3 3 6 1 6 -5 0 -5 6 -10 13 -10 6 0 30 -5 52 -10
42 -10 132 -9 175 2 14 3 36 8 50 11 13 3 27 10 31 15 3 6 8 10 10 8 2 -1 24
10 49 26 60 37 114 98 147 165 28 55 32 68 36 107 1 13 4 23 7 23 10 0 3 99
-14 185 -6 33 -62 126 -98 165 -46 48 -119 100 -141 100 -8 0 -17 3 -21 8 -4
4 -12 8 -17 8 -5 1 -10 2 -11 4 -8 6 -51 12 -108 14 -84 3 -113 -4 -220 -53
-41 -19 -160 -135 -160 -156 0 -8 -4 -15 -10 -15 -5 0 -10 -8 -10 -18 0 -10
-3 -22 -7 -26 -7 -6 -13 -29 -15 -54 -2 -16 -57 -31 -82 -22 -11 4 -36 4 -57
0 -20 -4 -44 -3 -52 2 -10 5 -18 4 -22 -2 -5 -8 -11 -8 -19 -1 -8 7 -24 7 -42
2 -16 -4 -38 -5 -49 -1 -11 4 -29 4 -40 0 -11 -4 -29 -4 -40 0 -11 4 -23 6
-26 4 -8 -4 -69 -5 -99 -1 -14 1 -38 0 -54 -5 -16 -4 -36 -3 -45 1 -9 5 -35 6
-59 1 -23 -4 -45 -4 -48 1 -2 4 -16 4 -29 -1 -15 -6 -27 -6 -30 1 -4 5 -12 6
-18 2 -15 -10 -38 -10 -57 -2 -8 4 -34 4 -58 -1 -23 -4 -45 -4 -48 1 -2 4 -16
4 -29 -1 -16 -6 -27 -6 -31 1 -3 6 -11 6 -17 1 -11 -8 -28 -8 -72 1 -11 2 -34
1 -52 -4 -18 -4 -35 -3 -38 2 -3 4 -17 4 -31 -1 -14 -6 -23 -6 -20 -1 3 4 -6
6 -19 3 -16 -3 -25 -11 -25 -22 0 -17 -3 -17 -56 -3 -31 8 -63 12 -70 9 -8 -3
-14 -2 -14 3 0 5 -11 7 -25 6 -14 -2 -25 0 -25 3 0 4 -15 7 -33 8 -17 0 -57 4
-87 7 -105 14 -155 18 -245 22 -49 2 -94 4 -99 4 -4 1 -6 8 -2 16 3 8 1 15 -4
15 -6 0 -6 9 -1 23 5 12 5 32 0 45 -5 13 -5 22 1 22 6 0 6 9 0 25 -6 15 -6 26
1 30 5 4 6 13 1 22 -5 8 -6 33 -2 54 4 21 4 39 0 39 -4 0 -5 10 -3 23 4 18 17
28 56 42 29 10 68 27 87 38 41 23 129 107 130 123 0 6 7 17 14 24 8 6 23 35
32 63 23 68 24 72 28 141 9 159 -86 318 -233 394 -89 46 -177 57 -279 35z"/>
</g>
</svg>
